<?xml version="1.0" encoding="UTF-8" standalone="no"?>
<!DOCTYPE svg PUBLIC "-//W3C//DTD SVG 1.1//EN" "http://www.w3.org/Graphics/SVG/1.1/DTD/svg11.dtd">
<svg width="100%" height="100%" viewBox="0 0 2048 1113" version="1.1" xmlns="http://www.w3.org/2000/svg" xmlns:xlink="http://www.w3.org/1999/xlink" xml:space="preserve" xmlns:serif="http://www.serif.com/" style="fill-rule:evenodd;clip-rule:evenodd;stroke-linejoin:round;stroke-miterlimit:2;">
    <g transform="matrix(1,0,0,1,-6413.01,-602.472)">
        <g id="Artboard4" transform="matrix(1,0,0,0.543079,-30.9931,602.472)">
            <rect x="6444" y="0" width="2048" height="2048" style="fill:none;"/>
            <g transform="matrix(12.339,0,0,36.8653,-31913.5,-32150.6)">
                <text x="3183.53px" y="908.189px" style="font-family:'Gruppo';font-size:24px;stroke:black;stroke-width:0.07px;">HOPB<tspan x="3249.85px " y="908.189px ">Y</tspan></text>
            </g>
            <g transform="matrix(1,0,0,1.84135,117.148,-879.25)">
                <g transform="matrix(0.983434,0.181265,-0.181265,0.983434,292.064,-1270.4)">
                    <path d="M6983.5,891.138C7002.45,879.242 7184.44,807.727 7191.82,839.744C7199.2,871.76 7046.7,1071.34 7027.75,1083.24C7008.81,1095.13 7087.28,945.117 7078.13,911.12C7068.98,877.124 6964.55,903.034 6983.5,891.138Z" style="fill:rgb(33,86,89);stroke:rgb(33,86,89);stroke-width:1.22px;stroke-linecap:round;stroke-miterlimit:1.5;"/>
                </g>
                <g transform="matrix(1,0,0,1,-14.6552,47.417)">
                    <ellipse cx="7266.37" cy="792.327" rx="22.344" ry="21.5" style="fill:rgb(33,86,89);stroke:rgb(33,86,89);stroke-width:1.22px;stroke-linecap:round;stroke-miterlimit:1.5;"/>
                </g>
            </g>
            <g transform="matrix(-0.809017,1.08232,-0.587785,-1.48969,13213.2,-4859.4)">
                <g transform="matrix(0.983434,0.181265,-0.181265,0.983434,292.064,-1270.4)">
                    <path d="M6983.5,891.138C7002.45,879.242 7184.44,807.727 7191.82,839.744C7199.2,871.76 7046.7,1071.34 7027.75,1083.24C7008.81,1095.13 7087.28,945.117 7078.13,911.12C7068.98,877.124 6964.55,903.034 6983.5,891.138Z" style="fill:rgb(33,86,89);stroke:rgb(33,86,89);stroke-width:1.22px;stroke-linecap:round;stroke-miterlimit:1.5;"/>
                </g>
                <g transform="matrix(1,0,0,1,-14.6552,47.417)">
                    <ellipse cx="7266.37" cy="792.327" rx="22.344" ry="21.5" style="fill:rgb(33,86,89);stroke:rgb(33,86,89);stroke-width:1.22px;stroke-linecap:round;stroke-miterlimit:1.5;"/>
                </g>
            </g>
            <g transform="matrix(0.309017,1.75123,-0.951057,0.569009,5879.53,-11638.2)">
                <g transform="matrix(0.983434,0.181265,-0.181265,0.983434,292.064,-1270.4)">
                    <path d="M6983.5,891.138C7002.45,879.242 7184.44,807.727 7191.82,839.744C7199.2,871.76 7046.7,1071.34 7027.75,1083.24C7008.81,1095.13 7087.28,945.117 7078.13,911.12C7068.98,877.124 6964.55,903.034 6983.5,891.138Z" style="fill:rgb(33,86,89);stroke:rgb(33,86,89);stroke-width:1.22px;stroke-linecap:round;stroke-miterlimit:1.5;"/>
                </g>
                <g transform="matrix(1,0,0,1,-14.6552,47.417)">
                    <ellipse cx="7266.37" cy="792.327" rx="22.344" ry="21.5" style="fill:rgb(33,86,89);stroke:rgb(33,86,89);stroke-width:1.22px;stroke-linecap:round;stroke-miterlimit:1.5;"/>
                </g>
            </g>
            <g transform="matrix(-0.809017,-1.08232,0.587785,-1.48969,11982.8,10073.5)">
                <g transform="matrix(0.983434,0.181265,-0.181265,0.983434,292.064,-1270.4)">
                    <path d="M6983.5,891.138C7002.45,879.242 7184.44,807.727 7191.82,839.744C7199.2,871.76 7046.7,1071.34 7027.75,1083.24C7008.81,1095.13 7087.28,945.117 7078.13,911.12C7068.98,877.124 6964.55,903.034 6983.5,891.138Z" style="fill:rgb(33,86,89);stroke:rgb(33,86,89);stroke-width:1.22px;stroke-linecap:round;stroke-miterlimit:1.5;"/>
                </g>
                <g transform="matrix(1,0,0,1,-14.6552,47.417)">
                    <ellipse cx="7266.37" cy="792.327" rx="22.344" ry="21.5" style="fill:rgb(33,86,89);stroke:rgb(33,86,89);stroke-width:1.22px;stroke-linecap:round;stroke-miterlimit:1.5;"/>
                </g>
            </g>
            <g transform="matrix(0.309017,-1.75123,0.951057,0.569009,3890.17,12532.2)">
                <g transform="matrix(0.983434,0.181265,-0.181265,0.983434,292.064,-1270.4)">
                    <path d="M6983.5,891.138C7002.45,879.242 7184.44,807.727 7191.82,839.744C7199.2,871.76 7046.7,1071.34 7027.75,1083.24C7008.81,1095.13 7087.28,945.117 7078.13,911.12C7068.98,877.124 6964.55,903.034 6983.5,891.138Z" style="fill:rgb(33,86,89);stroke:rgb(33,86,89);stroke-width:1.22px;stroke-linecap:round;stroke-miterlimit:1.5;"/>
                </g>
                <g transform="matrix(1,0,0,1,-14.6552,47.417)">
                    <ellipse cx="7266.37" cy="792.327" rx="22.344" ry="21.5" style="fill:rgb(33,86,89);stroke:rgb(33,86,89);stroke-width:1.22px;stroke-linecap:round;stroke-miterlimit:1.5;"/>
                </g>
            </g>
        </g>
    </g>
</svg>
