<?xml version="1.0" encoding="UTF-8" standalone="no"?><!DOCTYPE svg PUBLIC "-//W3C//DTD SVG 1.1//EN" "http://www.w3.org/Graphics/SVG/1.1/DTD/svg11.dtd"><svg width="100%" height="100%" viewBox="0 0 4267 2318" version="1.1" xmlns="http://www.w3.org/2000/svg" xmlns:xlink="http://www.w3.org/1999/xlink" xml:space="preserve" xmlns:serif="http://www.serif.com/" style="fill-rule:evenodd;clip-rule:evenodd;stroke-linecap:round;stroke-linejoin:round;stroke-miterlimit:1.5;"><rect id="Artboard4" x="0" y="0" width="4266.67" height="2317.14" style="fill:none;"/><g><path d="M1398.94,821.534c43.314,-17.217 443.2,-95.011 446.222,-26.629c3.021,68.382 -384.78,419.703 -428.093,436.921c-43.314,17.217 174.122,-260.506 168.212,-333.615c-5.911,-73.109 -229.654,-59.459 -186.341,-76.677Z" style="fill:#215659;stroke:#215659;stroke-width:2.54px;"/><ellipse cx="1926.8" cy="754.67" rx="46.55" ry="44.792" style="fill:#215659;stroke:#215659;stroke-width:2.54px;"/></g><g><path d="M1239.6,1602.41c-24.921,39.388 -302.71,337.372 -345.348,283.826c-42.639,-53.546 64.598,-565.714 89.519,-605.103c24.921,-39.388 12.253,313.101 60.007,368.773c47.754,55.672 220.743,-86.884 195.822,-47.496Z" style="fill:#215659;stroke:#215659;stroke-width:2.54px;"/><path d="M878.187,2003.01c-20.785,15.101 -49.458,11.124 -63.988,-8.876c-14.531,-20 -9.454,-48.498 11.331,-63.599c20.786,-15.102 49.458,-11.124 63.989,8.876c14.53,20 9.453,48.497 -11.332,63.599Z" style="fill:#215659;stroke:#215659;stroke-width:2.54px;"/></g><g><path d="M1602.01,1259.98c29.759,35.873 227.317,392.148 163.216,416.153c-64.102,24.005 -518.065,-236.252 -547.824,-272.125c-29.76,-35.873 301.562,85.1 369.267,56.887c67.704,-28.213 -14.419,-236.788 15.341,-200.915Z" style="fill:#215659;stroke:#215659;stroke-width:2.54px;"/><path d="M1871.32,1727.49c7.939,24.434 -4.704,50.474 -28.215,58.113c-23.511,7.64 -49.045,-5.996 -56.985,-30.43c-7.939,-24.434 4.704,-50.474 28.215,-58.113c23.512,-7.64 49.046,5.996 56.985,30.43Z" style="fill:#215659;stroke:#215659;stroke-width:2.54px;"/></g><g><path d="M811.468,1358.02c-45.162,-11.53 -414.403,-183.641 -376.653,-240.739c37.749,-57.098 557.988,-113.379 603.15,-101.849c45.161,11.529 -293.99,108.406 -332.181,171.027c-38.19,62.621 150.845,183.09 105.684,171.561Z" style="fill:#215659;stroke:#215659;stroke-width:2.54px;"/><path d="M318.794,1138.09c-20.785,-15.101 -25.863,-43.599 -11.332,-63.599c14.531,-20 43.203,-23.978 63.988,-8.876c20.785,15.101 25.863,43.599 11.332,63.599c-14.531,20 -43.203,23.977 -63.988,8.876Z" style="fill:#215659;stroke:#215659;stroke-width:2.54px;"/></g><g><path d="M912.396,874.042c-2.991,-46.514 46.595,-450.868 112.564,-432.611c65.968,18.258 280.258,495.643 283.248,542.157c2.99,46.514 -193.949,-246.101 -265.306,-263.072c-71.357,-16.971 -127.516,200.04 -130.506,153.526Z" style="fill:#215659;stroke:#215659;stroke-width:2.54px;"/><path d="M969.32,337.519c7.939,-24.435 33.473,-38.07 56.985,-30.431c23.511,7.639 36.154,33.679 28.214,58.114c-7.939,24.434 -33.473,38.069 -56.984,30.43c-23.512,-7.639 -36.154,-33.679 -28.215,-58.113Z" style="fill:#215659;stroke:#215659;stroke-width:2.54px;"/></g><g><path d="M1973.78,977.941c0.006,141.886 0.015,406.505 0.02,514.436c-0,6.899 5.601,12.5 12.5,12.5c6.899,-0 12.5,-5.602 12.5,-12.501c-0.005,-107.931 -0.014,-372.55 -0.02,-514.436c-0.001,-6.899 -5.602,-12.5 -12.501,-12.499c-6.899,-0 -12.5,5.601 -12.499,12.5Z"/><path d="M2265.5,977.941c0.006,141.886 0.015,406.505 0.02,514.436c-0,6.899 5.601,12.5 12.5,12.5c6.899,-0 12.5,-5.602 12.5,-12.501c-0.005,-107.931 -0.014,-372.55 -0.02,-514.436c-0,-6.899 -5.602,-12.5 -12.501,-12.499c-6.899,-0 -12.499,5.601 -12.499,12.5Z"/><path d="M2904.88,972.758c0.006,141.885 -0.799,434.423 -0.795,542.354c0.001,6.899 5.602,12.5 12.501,12.5c6.899,-0.001 12.5,-5.602 12.499,-12.501c-0.004,-107.931 0.801,-400.469 0.795,-542.354c-0,-6.899 -5.602,-12.5 -12.5,-12.5c-6.899,0 -12.5,5.602 -12.5,12.501Z"/><path d="M3263.92,972.786c-0,141.855 -0,406.417 -0,514.324c-0,6.899 5.601,12.5 12.5,12.5c6.899,0 12.5,-5.601 12.5,-12.5c-0,-107.907 -0,-372.469 -0,-514.324c-0,-6.899 -5.601,-12.5 -12.5,-12.5c-6.899,0 -12.5,5.601 -12.5,12.5Z"/><path d="M1992.52,1238.65c84.569,0.026 222.294,0.076 281.621,0.096c8.049,0.003 14.586,-6.53 14.589,-14.578c0.002,-8.049 -6.53,-14.586 -14.579,-14.589c-59.327,-0.02 -197.052,-0.069 -281.622,-0.096c-8.049,-0.002 -14.585,6.53 -14.588,14.579c-0.002,8.049 6.53,14.586 14.579,14.588Z"/><path d="M2592.53,965.864c185.027,-3.888 217.711,119.06 213.403,269.295c-4.854,169.274 -36.05,258.666 -204.317,262.449c-168.809,3.795 -213.205,-105.66 -213.092,-265.016c0.107,-149.613 30.422,-263.08 204.006,-266.728Z" style="fill:none;stroke:#000;stroke-width:29.17px;"/><path d="M2919.29,974.529c-0,0 187.493,-13.824 228.171,36.398c36.246,44.752 45.137,91.53 43.928,147.641c-1.008,46.806 -3.778,102.081 -45.168,136.35c-49.927,41.336 -225.777,25.836 -225.777,25.836" style="fill:none;stroke:#000;stroke-width:29.17px;"/><path d="M3276.42,973.98c-0,0 206.28,-9.469 251.033,24.931c39.878,30.652 49.66,62.693 48.33,101.126c-1.109,32.06 -4.156,69.921 -49.694,93.393c-54.929,28.313 -248.399,17.696 -248.399,17.696" style="fill:none;stroke:#000;stroke-width:29.17px;"/><path d="M3656.81,977.958l149.767,295.641l152.858,-300.813l-152.858,300.813l2.56,225.406" style="fill:none;stroke:#000;stroke-width:29.17px;"/><path d="M3277.92,1214.44c0,0 213.962,-10.799 260.381,28.432c41.363,34.957 51.509,71.497 50.13,115.328c-1.15,36.562 -4.311,79.74 -51.544,106.508c-56.975,32.289 -257.649,20.181 -257.649,20.181" style="fill:none;stroke:#000;stroke-width:29.17px;"/></g></svg>