<?xml version="1.0" encoding="UTF-8" standalone="no"?>
<!DOCTYPE svg PUBLIC "-//W3C//DTD SVG 1.1//EN" "http://www.w3.org/Graphics/SVG/1.1/DTD/svg11.dtd">
<svg width="100%" height="100%" viewBox="0 0 2048 1113" version="1.1" xmlns="http://www.w3.org/2000/svg" xmlns:xlink="http://www.w3.org/1999/xlink" xml:space="preserve" xmlns:serif="http://www.serif.com/" style="fill-rule:evenodd;clip-rule:evenodd;stroke-linecap:round;stroke-linejoin:round;stroke-miterlimit:1.5;">
    <g transform="matrix(1,0,0,1,-6413.01,-602.472)">
        <g id="Artboard4" transform="matrix(1,0,0,0.543079,-30.9931,602.472)">
            <rect x="6444" y="0" width="2048" height="2048" style="fill:none;"/>
            <g transform="matrix(1,0,0,1.84135,117.148,-879.25)">
                <g transform="matrix(0.983434,0.181265,-0.181265,0.983434,292.064,-1270.4)">
                    <path d="M6983.5,891.138C7002.45,879.242 7184.44,807.727 7191.82,839.744C7199.2,871.76 7046.7,1071.34 7027.75,1083.24C7008.81,1095.13 7087.28,945.117 7078.13,911.12C7068.98,877.124 6964.55,903.034 6983.5,891.138Z" style="fill:rgb(33,86,89);stroke:rgb(33,86,89);stroke-width:1.22px;"/>
                </g>
                <g transform="matrix(1,0,0,1,-14.6552,47.417)">
                    <ellipse cx="7266.37" cy="792.327" rx="22.344" ry="21.5" style="fill:rgb(33,86,89);stroke:rgb(33,86,89);stroke-width:1.22px;"/>
                </g>
            </g>
            <g transform="matrix(-0.809017,1.08232,-0.587785,-1.48969,13213.2,-4859.4)">
                <g transform="matrix(0.983434,0.181265,-0.181265,0.983434,292.064,-1270.4)">
                    <path d="M6983.5,891.138C7002.45,879.242 7184.44,807.727 7191.82,839.744C7199.2,871.76 7046.7,1071.34 7027.75,1083.24C7008.81,1095.13 7087.28,945.117 7078.13,911.12C7068.98,877.124 6964.55,903.034 6983.5,891.138Z" style="fill:rgb(33,86,89);stroke:rgb(33,86,89);stroke-width:1.22px;"/>
                </g>
                <g transform="matrix(1,0,0,1,-14.6552,47.417)">
                    <ellipse cx="7266.37" cy="792.327" rx="22.344" ry="21.5" style="fill:rgb(33,86,89);stroke:rgb(33,86,89);stroke-width:1.22px;"/>
                </g>
            </g>
            <g transform="matrix(0.309017,1.75123,-0.951057,0.569009,5879.53,-11638.2)">
                <g transform="matrix(0.983434,0.181265,-0.181265,0.983434,292.064,-1270.4)">
                    <path d="M6983.5,891.138C7002.45,879.242 7184.44,807.727 7191.82,839.744C7199.2,871.76 7046.7,1071.34 7027.75,1083.24C7008.81,1095.13 7087.28,945.117 7078.13,911.12C7068.98,877.124 6964.55,903.034 6983.5,891.138Z" style="fill:rgb(33,86,89);stroke:rgb(33,86,89);stroke-width:1.22px;"/>
                </g>
                <g transform="matrix(1,0,0,1,-14.6552,47.417)">
                    <ellipse cx="7266.37" cy="792.327" rx="22.344" ry="21.5" style="fill:rgb(33,86,89);stroke:rgb(33,86,89);stroke-width:1.22px;"/>
                </g>
            </g>
            <g transform="matrix(-0.809017,-1.08232,0.587785,-1.48969,11982.8,10073.5)">
                <g transform="matrix(0.983434,0.181265,-0.181265,0.983434,292.064,-1270.4)">
                    <path d="M6983.5,891.138C7002.45,879.242 7184.44,807.727 7191.82,839.744C7199.2,871.76 7046.7,1071.34 7027.75,1083.24C7008.81,1095.13 7087.28,945.117 7078.13,911.12C7068.98,877.124 6964.55,903.034 6983.5,891.138Z" style="fill:rgb(33,86,89);stroke:rgb(33,86,89);stroke-width:1.22px;"/>
                </g>
                <g transform="matrix(1,0,0,1,-14.6552,47.417)">
                    <ellipse cx="7266.37" cy="792.327" rx="22.344" ry="21.5" style="fill:rgb(33,86,89);stroke:rgb(33,86,89);stroke-width:1.22px;"/>
                </g>
            </g>
            <g transform="matrix(0.309017,-1.75123,0.951057,0.569009,3890.17,12532.2)">
                <g transform="matrix(0.983434,0.181265,-0.181265,0.983434,292.064,-1270.4)">
                    <path d="M6983.5,891.138C7002.45,879.242 7184.44,807.727 7191.82,839.744C7199.2,871.76 7046.7,1071.34 7027.75,1083.24C7008.81,1095.13 7087.28,945.117 7078.13,911.12C7068.98,877.124 6964.55,903.034 6983.5,891.138Z" style="fill:rgb(33,86,89);stroke:rgb(33,86,89);stroke-width:1.22px;"/>
                </g>
                <g transform="matrix(1,0,0,1,-14.6552,47.417)">
                    <ellipse cx="7266.37" cy="792.327" rx="22.344" ry="21.5" style="fill:rgb(33,86,89);stroke:rgb(33,86,89);stroke-width:1.22px;"/>
                </g>
            </g>
            <g>
                <g transform="matrix(0.00899836,0,0,1.84535,7331.13,-1113.65)">
                    <path d="M6699.63,1071.88C6699.95,1139.84 6700.46,1266.58 6700.69,1318.28C6700.7,1321.58 6999.49,1324.27 7367.5,1324.27C7735.51,1324.27 8034.28,1321.58 8034.26,1318.28C8034.04,1266.58 8033.53,1139.84 8033.21,1071.88C8033.19,1068.58 7734.4,1065.9 7366.39,1065.9C6998.38,1065.9 6699.62,1068.58 6699.63,1071.88Z"/>
                </g>
                <g transform="matrix(0.00899836,0,0,1.84535,7471.16,-1113.65)">
                    <path d="M6699.63,1071.88C6699.95,1139.84 6700.46,1266.58 6700.69,1318.28C6700.7,1321.58 6999.49,1324.27 7367.5,1324.27C7735.51,1324.27 8034.28,1321.58 8034.26,1318.28C8034.04,1266.58 8033.53,1139.84 8033.21,1071.88C8033.19,1068.58 7734.4,1065.9 7366.39,1065.9C6998.38,1065.9 6699.62,1068.58 6699.63,1071.88Z"/>
                </g>
                <g transform="matrix(0.00899836,0,0,1.84535,7777.67,-1093.55)">
                    <path d="M6743.08,1058.51C6743.4,1126.47 6700.46,1266.58 6700.69,1318.28C6700.7,1321.58 6999.49,1324.27 7367.5,1324.27C7735.51,1324.27 8034.28,1321.58 8034.26,1318.28C8034.04,1266.58 8076.98,1126.47 8076.66,1058.51C8076.64,1055.21 7777.85,1052.53 7409.84,1052.53C7041.83,1052.53 6743.07,1055.21 6743.08,1058.51Z"/>
                </g>
                <g transform="matrix(-2e-06,0,0,1.84494,8016.68,-1117.77)">
                    <path d="M8.43413e+11,1071.88C8.43413e+11,1139.84 8.43413e+11,1266.58 8.43413e+11,1318.28C8.43413e+11,1321.58 4.65493e+11,1324.27 7367.5,1324.27C-4.65493e+11,1324.27 -8.43413e+11,1321.58 -8.43413e+11,1318.28C-8.43413e+11,1266.58 -8.43413e+11,1139.84 -8.43413e+11,1071.88C-8.43413e+11,1068.58 -4.65493e+11,1065.89 7366.38,1065.89C4.65493e+11,1065.89 8.43413e+11,1068.58 8.43413e+11,1071.88Z"/>
                </g>
                <g transform="matrix(128.104,1.33329e-13,-2.92076e-20,0.000344009,-936270,1081.52)">
                    <path d="M7366.42,38540.3C7366.74,38608.2 7367.25,38735 7367.48,38786.7C7367.51,38793.7 7367.53,22010.3 7367.53,1330.99C7367.53,-19348.4 7367.51,-36143.1 7367.48,-36150.1C7367.25,-36201.8 7366.74,-36328.5 7366.42,-36396.5C7366.39,-36403 7366.36,-19619.2 7366.36,1060.16C7366.36,21739.5 7366.39,38533.8 7366.42,38540.3Z"/>
                </g>
                <g transform="matrix(1.25661,0,0,1.98461,-1960.5,-1299.07)">
                    <path d="M7678.53,1084.72C7749.21,1082.99 7761.69,1137.74 7760.05,1204.65C7758.19,1280.04 7746.28,1319.85 7682,1321.53C7617.52,1323.22 7600.56,1274.48 7600.61,1203.51C7600.65,1136.88 7612.23,1086.34 7678.53,1084.72Z" style="fill:none;stroke:black;stroke-width:11.96px;"/>
                </g>
                <g transform="matrix(1,0,0,1.84135,30.9931,-1109.36)">
                    <path d="M7814.27,1070.25C7814.27,1070.25 7904.26,1063.61 7923.79,1087.72C7941.19,1109.2 7945.45,1131.65 7944.87,1158.59C7944.39,1181.05 7943.06,1207.58 7923.19,1224.03C7899.23,1243.87 7814.82,1236.43 7814.82,1236.43" style="fill:none;stroke:black;stroke-width:14px;"/>
                </g>
                <g transform="matrix(1.1002,0,0,1.26123,-580.563,-488.976)">
                    <path d="M7814.27,1070.25C7814.27,1070.25 7904.26,1063.61 7923.79,1087.72C7941.19,1109.2 7945.45,1131.65 7944.87,1158.59C7944.39,1181.05 7943.06,1207.58 7923.19,1224.03C7899.23,1243.87 7814.82,1236.43 7814.82,1236.43" style="fill:none;stroke:black;stroke-width:15.28px;"/>
                </g>
                <g transform="matrix(1,0,0,1.84135,30.9931,-1109.36)">
                    <path d="M8168.27,1071.89L8240.16,1213.8L8313.53,1069.41L8240.16,1213.8L8241.39,1322" style="fill:none;stroke:black;stroke-width:14px;"/>
                </g>
                <g transform="matrix(1.14117,0,0,1.43835,-899.984,-466.012)">
                    <path d="M7814.27,1070.25C7814.27,1070.25 7904.26,1063.61 7923.79,1087.72C7941.19,1109.2 7945.45,1131.65 7944.87,1158.59C7944.39,1181.05 7943.06,1207.58 7923.19,1224.03C7899.23,1243.87 7814.82,1236.43 7814.82,1236.43" style="fill:none;stroke:black;stroke-width:14.32px;"/>
                </g>
            </g>
        </g>
    </g>
</svg>
