<?xml version="1.0" encoding="UTF-8" standalone="no"?>
<!DOCTYPE svg PUBLIC "-//W3C//DTD SVG 1.1//EN" "http://www.w3.org/Graphics/SVG/1.1/DTD/svg11.dtd">
<svg width="100%" height="100%" viewBox="0 0 8462 2048" version="1.1" xmlns="http://www.w3.org/2000/svg" xmlns:xlink="http://www.w3.org/1999/xlink" xml:space="preserve" xmlns:serif="http://www.serif.com/" style="fill-rule:evenodd;clip-rule:evenodd;stroke-linecap:round;stroke-linejoin:round;stroke-miterlimit:1.5;">
    <rect id="Artboard1" x="0" y="0" width="2048" height="2048" style="fill:none;"/>
    <g id="Artboard11" serif:id="Artboard1">
        <g>
            <g transform="matrix(0.707107,0.707107,-0.707107,0.707107,1442.53,-537.751)">
                <path d="M569.594,1221.43C566.994,1177.02 714.631,785.461 814.094,784.019C928.248,782.364 987.888,1438.85 980.761,1450.05C973.633,1461.24 870.321,1082.76 801.794,1044.66C733.266,1006.56 572.194,1265.85 569.594,1221.43Z" style="fill:rgb(33,86,89);stroke:rgb(33,86,89);stroke-width:1px;"/>
                <g transform="matrix(0.751886,-1.11022e-16,1.11022e-16,0.663138,211.933,265.505)">
                    <ellipse cx="808.406" cy="683.092" rx="84.218" ry="84.294" style="fill:rgb(28,77,99);stroke:rgb(28,77,99);stroke-width:1.41px;"/>
                </g>
            </g>
            <g transform="matrix(0.707107,-0.707107,0.707107,0.707107,-539.59,603.086)">
                <path d="M569.594,1221.43C566.994,1177.02 714.631,785.461 814.094,784.019C928.248,782.364 987.888,1438.85 980.761,1450.05C973.633,1461.24 870.321,1082.76 801.794,1044.66C733.266,1006.56 572.194,1265.85 569.594,1221.43Z" style="fill:rgb(33,86,89);stroke:rgb(33,86,89);stroke-width:1px;"/>
                <g transform="matrix(0.751886,-1.11022e-16,1.11022e-16,0.663138,211.933,265.505)">
                    <ellipse cx="808.406" cy="683.092" rx="84.218" ry="84.294" style="fill:rgb(28,77,99);stroke:rgb(28,77,99);stroke-width:1.41px;"/>
                </g>
            </g>
            <g transform="matrix(-0.707107,0.707107,-0.707107,-0.707107,2589.08,1446.63)">
                <path d="M569.594,1221.43C566.994,1177.02 714.631,785.461 814.094,784.019C928.248,782.364 987.888,1438.85 980.761,1450.05C973.633,1461.24 870.321,1082.76 801.794,1044.66C733.266,1006.56 572.194,1265.85 569.594,1221.43Z" style="fill:rgb(33,86,89);stroke:rgb(33,86,89);stroke-width:1px;"/>
                <g transform="matrix(0.751886,-1.11022e-16,1.11022e-16,0.663138,211.933,265.505)">
                    <ellipse cx="808.406" cy="683.092" rx="84.218" ry="84.294" style="fill:rgb(28,77,99);stroke:rgb(28,77,99);stroke-width:1.41px;"/>
                </g>
            </g>
            <g transform="matrix(-0.707107,-0.707107,0.707107,-0.707107,600.438,2591.51)">
                <path d="M569.594,1221.43C566.994,1177.02 714.631,785.461 814.094,784.019C928.248,782.364 987.888,1438.85 980.761,1450.05C973.633,1461.24 870.321,1082.76 801.794,1044.66C733.266,1006.56 572.194,1265.85 569.594,1221.43Z" style="fill:rgb(33,86,89);stroke:rgb(33,86,89);stroke-width:1px;"/>
                <g transform="matrix(0.751886,-1.11022e-16,1.11022e-16,0.663138,211.933,265.505)">
                    <ellipse cx="808.406" cy="683.092" rx="84.218" ry="84.294" style="fill:rgb(28,77,99);stroke:rgb(28,77,99);stroke-width:1.41px;"/>
                </g>
            </g>
        </g>
    </g>
    <rect id="Artboard2" x="2148" y="0" width="2048" height="2048" style="fill:none;"/>
    <g id="Artboard21" serif:id="Artboard2">
        <g transform="matrix(0.285415,0,0,0.285415,2097.87,-1.51376)">
            <g transform="matrix(0.707107,0.707107,-0.707107,0.707107,1442.53,-537.751)">
                <path d="M569.594,1221.43C566.994,1177.02 714.631,785.461 814.094,784.019C928.248,782.364 987.888,1438.85 980.761,1450.05C973.633,1461.24 870.321,1082.76 801.794,1044.66C733.266,1006.56 572.194,1265.85 569.594,1221.43Z" style="fill:rgb(33,86,89);stroke:rgb(33,86,89);stroke-width:3.5px;"/>
                <g transform="matrix(0.751886,-1.11022e-16,1.11022e-16,0.663138,211.933,265.505)">
                    <ellipse cx="808.406" cy="683.092" rx="84.218" ry="84.294" style="fill:rgb(28,77,99);stroke:rgb(28,77,99);stroke-width:4.94px;"/>
                </g>
            </g>
            <g transform="matrix(0.707107,-0.707107,0.707107,0.707107,-539.59,603.086)">
                <path d="M569.594,1221.43C566.994,1177.02 714.631,785.461 814.094,784.019C928.248,782.364 987.888,1438.85 980.761,1450.05C973.633,1461.24 870.321,1082.76 801.794,1044.66C733.266,1006.56 572.194,1265.85 569.594,1221.43Z" style="fill:rgb(33,86,89);stroke:rgb(33,86,89);stroke-width:3.5px;"/>
                <g transform="matrix(0.751886,-1.11022e-16,1.11022e-16,0.663138,211.933,265.505)">
                    <ellipse cx="808.406" cy="683.092" rx="84.218" ry="84.294" style="fill:rgb(28,77,99);stroke:rgb(28,77,99);stroke-width:4.94px;"/>
                </g>
            </g>
            <g transform="matrix(-0.707107,0.707107,-0.707107,-0.707107,2589.08,1446.63)">
                <path d="M569.594,1221.43C566.994,1177.02 714.631,785.461 814.094,784.019C928.248,782.364 987.888,1438.85 980.761,1450.05C973.633,1461.24 870.321,1082.76 801.794,1044.66C733.266,1006.56 572.194,1265.85 569.594,1221.43Z" style="fill:rgb(33,86,89);stroke:rgb(33,86,89);stroke-width:3.5px;"/>
                <g transform="matrix(0.751886,-1.11022e-16,1.11022e-16,0.663138,211.933,265.505)">
                    <ellipse cx="808.406" cy="683.092" rx="84.218" ry="84.294" style="fill:rgb(28,77,99);stroke:rgb(28,77,99);stroke-width:4.94px;"/>
                </g>
            </g>
            <g transform="matrix(-0.707107,-0.707107,0.707107,-0.707107,600.438,2591.51)">
                <path d="M569.594,1221.43C566.994,1177.02 714.631,785.461 814.094,784.019C928.248,782.364 987.888,1438.85 980.761,1450.05C973.633,1461.24 870.321,1082.76 801.794,1044.66C733.266,1006.56 572.194,1265.85 569.594,1221.43Z" style="fill:rgb(33,86,89);stroke:rgb(33,86,89);stroke-width:3.5px;"/>
                <g transform="matrix(0.751886,-1.11022e-16,1.11022e-16,0.663138,211.933,265.505)">
                    <ellipse cx="808.406" cy="683.092" rx="84.218" ry="84.294" style="fill:rgb(28,77,99);stroke:rgb(28,77,99);stroke-width:4.94px;"/>
                </g>
            </g>
        </g>
        <g transform="matrix(0.285415,0,0,0.285415,2097.87,818.403)">
            <g transform="matrix(0.707107,0.707107,-0.707107,0.707107,1442.53,-537.751)">
                <path d="M569.594,1221.43C566.994,1177.02 714.631,785.461 814.094,784.019C928.248,782.364 987.888,1438.85 980.761,1450.05C973.633,1461.24 870.321,1082.76 801.794,1044.66C733.266,1006.56 572.194,1265.85 569.594,1221.43Z" style="fill:rgb(33,86,89);stroke:rgb(33,86,89);stroke-width:3.5px;"/>
                <g transform="matrix(0.751886,-1.11022e-16,1.11022e-16,0.663138,211.933,265.505)">
                    <ellipse cx="808.406" cy="683.092" rx="84.218" ry="84.294" style="fill:rgb(28,77,99);stroke:rgb(28,77,99);stroke-width:4.94px;"/>
                </g>
            </g>
            <g transform="matrix(0.707107,-0.707107,0.707107,0.707107,-539.59,603.086)">
                <path d="M569.594,1221.43C566.994,1177.02 714.631,785.461 814.094,784.019C928.248,782.364 987.888,1438.85 980.761,1450.05C973.633,1461.24 870.321,1082.76 801.794,1044.66C733.266,1006.56 572.194,1265.85 569.594,1221.43Z" style="fill:rgb(33,86,89);stroke:rgb(33,86,89);stroke-width:3.5px;"/>
                <g transform="matrix(0.751886,-1.11022e-16,1.11022e-16,0.663138,211.933,265.505)">
                    <ellipse cx="808.406" cy="683.092" rx="84.218" ry="84.294" style="fill:rgb(28,77,99);stroke:rgb(28,77,99);stroke-width:4.94px;"/>
                </g>
            </g>
            <g transform="matrix(-0.707107,0.707107,-0.707107,-0.707107,2589.08,1446.63)">
                <path d="M569.594,1221.43C566.994,1177.02 714.631,785.461 814.094,784.019C928.248,782.364 987.888,1438.85 980.761,1450.05C973.633,1461.24 870.321,1082.76 801.794,1044.66C733.266,1006.56 572.194,1265.85 569.594,1221.43Z" style="fill:rgb(33,86,89);stroke:rgb(33,86,89);stroke-width:3.5px;"/>
                <g transform="matrix(0.751886,-1.11022e-16,1.11022e-16,0.663138,211.933,265.505)">
                    <ellipse cx="808.406" cy="683.092" rx="84.218" ry="84.294" style="fill:rgb(28,77,99);stroke:rgb(28,77,99);stroke-width:4.94px;"/>
                </g>
            </g>
            <g transform="matrix(-0.707107,-0.707107,0.707107,-0.707107,600.438,2591.51)">
                <path d="M569.594,1221.43C566.994,1177.02 714.631,785.461 814.094,784.019C928.248,782.364 987.888,1438.85 980.761,1450.05C973.633,1461.24 870.321,1082.76 801.794,1044.66C733.266,1006.56 572.194,1265.85 569.594,1221.43Z" style="fill:rgb(33,86,89);stroke:rgb(33,86,89);stroke-width:3.5px;"/>
                <g transform="matrix(0.751886,-1.11022e-16,1.11022e-16,0.663138,211.933,265.505)">
                    <ellipse cx="808.406" cy="683.092" rx="84.218" ry="84.294" style="fill:rgb(28,77,99);stroke:rgb(28,77,99);stroke-width:4.94px;"/>
                </g>
            </g>
        </g>
        <g transform="matrix(0.285415,0,0,0.285415,2097.87,397.168)">
            <g transform="matrix(0.707107,0.707107,-0.707107,0.707107,1442.53,-537.751)">
                <path d="M569.594,1221.43C566.994,1177.02 714.631,785.461 814.094,784.019C928.248,782.364 987.888,1438.85 980.761,1450.05C973.633,1461.24 870.321,1082.76 801.794,1044.66C733.266,1006.56 572.194,1265.85 569.594,1221.43Z" style="fill:rgb(33,86,89);stroke:rgb(33,86,89);stroke-width:3.5px;"/>
                <g transform="matrix(0.751886,-1.11022e-16,1.11022e-16,0.663138,211.933,265.505)">
                    <ellipse cx="808.406" cy="683.092" rx="84.218" ry="84.294" style="fill:rgb(28,77,99);stroke:rgb(28,77,99);stroke-width:4.94px;"/>
                </g>
            </g>
            <g transform="matrix(0.707107,-0.707107,0.707107,0.707107,-539.59,603.086)">
                <path d="M569.594,1221.43C566.994,1177.02 714.631,785.461 814.094,784.019C928.248,782.364 987.888,1438.85 980.761,1450.05C973.633,1461.24 870.321,1082.76 801.794,1044.66C733.266,1006.56 572.194,1265.85 569.594,1221.43Z" style="fill:rgb(33,86,89);stroke:rgb(33,86,89);stroke-width:3.5px;"/>
                <g transform="matrix(0.751886,-1.11022e-16,1.11022e-16,0.663138,211.933,265.505)">
                    <ellipse cx="808.406" cy="683.092" rx="84.218" ry="84.294" style="fill:rgb(28,77,99);stroke:rgb(28,77,99);stroke-width:4.94px;"/>
                </g>
            </g>
            <g transform="matrix(-0.707107,0.707107,-0.707107,-0.707107,2589.08,1446.63)">
                <path d="M569.594,1221.43C566.994,1177.02 714.631,785.461 814.094,784.019C928.248,782.364 987.888,1438.85 980.761,1450.05C973.633,1461.24 870.321,1082.76 801.794,1044.66C733.266,1006.56 572.194,1265.85 569.594,1221.43Z" style="fill:rgb(33,86,89);stroke:rgb(33,86,89);stroke-width:3.5px;"/>
                <g transform="matrix(0.751886,-1.11022e-16,1.11022e-16,0.663138,211.933,265.505)">
                    <ellipse cx="808.406" cy="683.092" rx="84.218" ry="84.294" style="fill:rgb(28,77,99);stroke:rgb(28,77,99);stroke-width:4.94px;"/>
                </g>
            </g>
            <g transform="matrix(-0.707107,-0.707107,0.707107,-0.707107,600.438,2591.51)">
                <path d="M569.594,1221.43C566.994,1177.02 714.631,785.461 814.094,784.019C928.248,782.364 987.888,1438.85 980.761,1450.05C973.633,1461.24 870.321,1082.76 801.794,1044.66C733.266,1006.56 572.194,1265.85 569.594,1221.43Z" style="fill:rgb(33,86,89);stroke:rgb(33,86,89);stroke-width:3.5px;"/>
                <g transform="matrix(0.751886,-1.11022e-16,1.11022e-16,0.663138,211.933,265.505)">
                    <ellipse cx="808.406" cy="683.092" rx="84.218" ry="84.294" style="fill:rgb(28,77,99);stroke:rgb(28,77,99);stroke-width:4.94px;"/>
                </g>
            </g>
        </g>
        <g transform="matrix(7.93766,0,0,8.46431,-22638.9,-7240.29)">
            <text x="3183.53px" y="884.174px" style="font-family:'Gruppo';font-size:24px;stroke:black;stroke-width:0.15px;stroke-linecap:butt;stroke-miterlimit:2;">T<tspan x="3215.71px 3248.24px " y="884.174px 884.174px ">HE</tspan></text>
            <text x="3183.53px" y="908.174px" style="font-family:'Gruppo';font-size:24px;stroke:black;stroke-width:0.15px;stroke-linecap:butt;stroke-miterlimit:2;">HOPB<tspan x="3249.85px " y="908.174px ">Y</tspan></text>
        </g>
        <g transform="matrix(0.285415,0,0,0.285415,2097.87,-1.51376)">
            <g transform="matrix(0.707107,0.707107,-0.707107,0.707107,1442.53,-537.751)">
                <path d="M569.594,1221.43C566.994,1177.02 714.631,785.461 814.094,784.019C928.248,782.364 987.888,1438.85 980.761,1450.05C973.633,1461.24 870.321,1082.76 801.794,1044.66C733.266,1006.56 572.194,1265.85 569.594,1221.43Z" style="fill:rgb(33,86,89);stroke:rgb(33,86,89);stroke-width:3.5px;"/>
                <g transform="matrix(0.751886,-1.11022e-16,1.11022e-16,0.663138,211.933,265.505)">
                    <ellipse cx="808.406" cy="683.092" rx="84.218" ry="84.294" style="fill:rgb(28,77,99);stroke:rgb(28,77,99);stroke-width:4.94px;"/>
                </g>
            </g>
            <g transform="matrix(0.707107,-0.707107,0.707107,0.707107,-539.59,603.086)">
                <path d="M569.594,1221.43C566.994,1177.02 714.631,785.461 814.094,784.019C928.248,782.364 987.888,1438.85 980.761,1450.05C973.633,1461.24 870.321,1082.76 801.794,1044.66C733.266,1006.56 572.194,1265.85 569.594,1221.43Z" style="fill:rgb(33,86,89);stroke:rgb(33,86,89);stroke-width:3.5px;"/>
                <g transform="matrix(0.751886,-1.11022e-16,1.11022e-16,0.663138,211.933,265.505)">
                    <ellipse cx="808.406" cy="683.092" rx="84.218" ry="84.294" style="fill:rgb(28,77,99);stroke:rgb(28,77,99);stroke-width:4.94px;"/>
                </g>
            </g>
            <g transform="matrix(-0.707107,0.707107,-0.707107,-0.707107,2589.08,1446.63)">
                <path d="M569.594,1221.43C566.994,1177.02 714.631,785.461 814.094,784.019C928.248,782.364 987.888,1438.85 980.761,1450.05C973.633,1461.24 870.321,1082.76 801.794,1044.66C733.266,1006.56 572.194,1265.85 569.594,1221.43Z" style="fill:rgb(33,86,89);stroke:rgb(33,86,89);stroke-width:3.5px;"/>
                <g transform="matrix(0.751886,-1.11022e-16,1.11022e-16,0.663138,211.933,265.505)">
                    <ellipse cx="808.406" cy="683.092" rx="84.218" ry="84.294" style="fill:rgb(28,77,99);stroke:rgb(28,77,99);stroke-width:4.94px;"/>
                </g>
            </g>
            <g transform="matrix(-0.707107,-0.707107,0.707107,-0.707107,600.438,2591.51)">
                <path d="M569.594,1221.43C566.994,1177.02 714.631,785.461 814.094,784.019C928.248,782.364 987.888,1438.85 980.761,1450.05C973.633,1461.24 870.321,1082.76 801.794,1044.66C733.266,1006.56 572.194,1265.85 569.594,1221.43Z" style="fill:rgb(33,86,89);stroke:rgb(33,86,89);stroke-width:3.5px;"/>
                <g transform="matrix(0.751886,-1.11022e-16,1.11022e-16,0.663138,211.933,265.505)">
                    <ellipse cx="808.406" cy="683.092" rx="84.218" ry="84.294" style="fill:rgb(28,77,99);stroke:rgb(28,77,99);stroke-width:4.94px;"/>
                </g>
            </g>
        </g>
        <g transform="matrix(0.285415,0,0,0.285415,2097.87,1210.45)">
            <g transform="matrix(0.707107,0.707107,-0.707107,0.707107,1442.53,-537.751)">
                <path d="M569.594,1221.43C566.994,1177.02 714.631,785.461 814.094,784.019C928.248,782.364 987.888,1438.85 980.761,1450.05C973.633,1461.24 870.321,1082.76 801.794,1044.66C733.266,1006.56 572.194,1265.85 569.594,1221.43Z" style="fill:rgb(33,86,89);stroke:rgb(33,86,89);stroke-width:3.5px;"/>
                <g transform="matrix(0.751886,-1.11022e-16,1.11022e-16,0.663138,211.933,265.505)">
                    <ellipse cx="808.406" cy="683.092" rx="84.218" ry="84.294" style="fill:rgb(28,77,99);stroke:rgb(28,77,99);stroke-width:4.94px;"/>
                </g>
            </g>
            <g transform="matrix(0.707107,-0.707107,0.707107,0.707107,-539.59,603.086)">
                <path d="M569.594,1221.43C566.994,1177.02 714.631,785.461 814.094,784.019C928.248,782.364 987.888,1438.85 980.761,1450.05C973.633,1461.24 870.321,1082.76 801.794,1044.66C733.266,1006.56 572.194,1265.85 569.594,1221.43Z" style="fill:rgb(33,86,89);stroke:rgb(33,86,89);stroke-width:3.5px;"/>
                <g transform="matrix(0.751886,-1.11022e-16,1.11022e-16,0.663138,211.933,265.505)">
                    <ellipse cx="808.406" cy="683.092" rx="84.218" ry="84.294" style="fill:rgb(28,77,99);stroke:rgb(28,77,99);stroke-width:4.94px;"/>
                </g>
            </g>
            <g transform="matrix(-0.707107,0.707107,-0.707107,-0.707107,2589.08,1446.63)">
                <path d="M569.594,1221.43C566.994,1177.02 714.631,785.461 814.094,784.019C928.248,782.364 987.888,1438.85 980.761,1450.05C973.633,1461.24 870.321,1082.76 801.794,1044.66C733.266,1006.56 572.194,1265.85 569.594,1221.43Z" style="fill:rgb(33,86,89);stroke:rgb(33,86,89);stroke-width:3.5px;"/>
                <g transform="matrix(0.751886,-1.11022e-16,1.11022e-16,0.663138,211.933,265.505)">
                    <ellipse cx="808.406" cy="683.092" rx="84.218" ry="84.294" style="fill:rgb(28,77,99);stroke:rgb(28,77,99);stroke-width:4.94px;"/>
                </g>
            </g>
            <g transform="matrix(-0.707107,-0.707107,0.707107,-0.707107,600.438,2591.51)">
                <path d="M569.594,1221.43C566.994,1177.02 714.631,785.461 814.094,784.019C928.248,782.364 987.888,1438.85 980.761,1450.05C973.633,1461.24 870.321,1082.76 801.794,1044.66C733.266,1006.56 572.194,1265.85 569.594,1221.43Z" style="fill:rgb(33,86,89);stroke:rgb(33,86,89);stroke-width:3.5px;"/>
                <g transform="matrix(0.751886,-1.11022e-16,1.11022e-16,0.663138,211.933,265.505)">
                    <ellipse cx="808.406" cy="683.092" rx="84.218" ry="84.294" style="fill:rgb(28,77,99);stroke:rgb(28,77,99);stroke-width:4.94px;"/>
                </g>
            </g>
        </g>
        <g transform="matrix(0.285415,0,0,0.285415,2097.87,1210.45)">
            <g transform="matrix(0.707107,0.707107,-0.707107,0.707107,1442.53,-537.751)">
                <path d="M569.594,1221.43C566.994,1177.02 714.631,785.461 814.094,784.019C928.248,782.364 987.888,1438.85 980.761,1450.05C973.633,1461.24 870.321,1082.76 801.794,1044.66C733.266,1006.56 572.194,1265.85 569.594,1221.43Z" style="fill:rgb(33,86,89);stroke:rgb(33,86,89);stroke-width:3.5px;"/>
                <g transform="matrix(0.751886,-1.11022e-16,1.11022e-16,0.663138,211.933,265.505)">
                    <ellipse cx="808.406" cy="683.092" rx="84.218" ry="84.294" style="fill:rgb(28,77,99);stroke:rgb(28,77,99);stroke-width:4.94px;"/>
                </g>
            </g>
            <g transform="matrix(0.707107,-0.707107,0.707107,0.707107,-539.59,603.086)">
                <path d="M569.594,1221.43C566.994,1177.02 714.631,785.461 814.094,784.019C928.248,782.364 987.888,1438.85 980.761,1450.05C973.633,1461.24 870.321,1082.76 801.794,1044.66C733.266,1006.56 572.194,1265.85 569.594,1221.43Z" style="fill:rgb(33,86,89);stroke:rgb(33,86,89);stroke-width:3.5px;"/>
                <g transform="matrix(0.751886,-1.11022e-16,1.11022e-16,0.663138,211.933,265.505)">
                    <ellipse cx="808.406" cy="683.092" rx="84.218" ry="84.294" style="fill:rgb(28,77,99);stroke:rgb(28,77,99);stroke-width:4.94px;"/>
                </g>
            </g>
            <g transform="matrix(-0.707107,0.707107,-0.707107,-0.707107,2589.08,1446.63)">
                <path d="M569.594,1221.43C566.994,1177.02 714.631,785.461 814.094,784.019C928.248,782.364 987.888,1438.85 980.761,1450.05C973.633,1461.24 870.321,1082.76 801.794,1044.66C733.266,1006.56 572.194,1265.85 569.594,1221.43Z" style="fill:rgb(33,86,89);stroke:rgb(33,86,89);stroke-width:3.5px;"/>
                <g transform="matrix(0.751886,-1.11022e-16,1.11022e-16,0.663138,211.933,265.505)">
                    <ellipse cx="808.406" cy="683.092" rx="84.218" ry="84.294" style="fill:rgb(28,77,99);stroke:rgb(28,77,99);stroke-width:4.94px;"/>
                </g>
            </g>
            <g transform="matrix(-0.707107,-0.707107,0.707107,-0.707107,600.438,2591.51)">
                <path d="M569.594,1221.43C566.994,1177.02 714.631,785.461 814.094,784.019C928.248,782.364 987.888,1438.85 980.761,1450.05C973.633,1461.24 870.321,1082.76 801.794,1044.66C733.266,1006.56 572.194,1265.85 569.594,1221.43Z" style="fill:rgb(33,86,89);stroke:rgb(33,86,89);stroke-width:3.5px;"/>
                <g transform="matrix(0.751886,-1.11022e-16,1.11022e-16,0.663138,211.933,265.505)">
                    <ellipse cx="808.406" cy="683.092" rx="84.218" ry="84.294" style="fill:rgb(28,77,99);stroke:rgb(28,77,99);stroke-width:4.94px;"/>
                </g>
            </g>
        </g>
        <g transform="matrix(7.93766,0,0,7.99026,-22638.9,-5636.37)">
            <g transform="matrix(0.534342,0,0,0.32125,1495.2,599.411)">
                <text x="3210.94px" y="883.11px" style="font-family:'Gruppo';font-size:24px;stroke:black;stroke-width:0.35px;stroke-linecap:butt;stroke-miterlimit:2;">THE</text>
            </g>
            <g transform="matrix(1,0,0,1.61187,0,-555.698)">
                <text x="3183.53px" y="908.189px" style="font-family:'Gruppo';font-size:24px;stroke:black;stroke-width:0.11px;stroke-linecap:butt;stroke-miterlimit:2;">HOPB<tspan x="3249.85px " y="908.189px ">Y</tspan></text>
            </g>
        </g>
        <g transform="matrix(0.285415,0,0,0.285415,2097.87,1210.45)">
            <g transform="matrix(0.707107,0.707107,-0.707107,0.707107,1442.53,-537.751)">
                <path d="M569.594,1221.43C566.994,1177.02 714.631,785.461 814.094,784.019C928.248,782.364 987.888,1438.85 980.761,1450.05C973.633,1461.24 870.321,1082.76 801.794,1044.66C733.266,1006.56 572.194,1265.85 569.594,1221.43Z" style="fill:rgb(33,86,89);stroke:rgb(33,86,89);stroke-width:3.5px;"/>
                <g transform="matrix(0.751886,-1.11022e-16,1.11022e-16,0.663138,211.933,265.505)">
                    <ellipse cx="808.406" cy="683.092" rx="84.218" ry="84.294" style="fill:rgb(28,77,99);stroke:rgb(28,77,99);stroke-width:4.94px;"/>
                </g>
            </g>
            <g transform="matrix(0.707107,-0.707107,0.707107,0.707107,-539.59,603.086)">
                <path d="M569.594,1221.43C566.994,1177.02 714.631,785.461 814.094,784.019C928.248,782.364 987.888,1438.85 980.761,1450.05C973.633,1461.24 870.321,1082.76 801.794,1044.66C733.266,1006.56 572.194,1265.85 569.594,1221.43Z" style="fill:rgb(33,86,89);stroke:rgb(33,86,89);stroke-width:3.5px;"/>
                <g transform="matrix(0.751886,-1.11022e-16,1.11022e-16,0.663138,211.933,265.505)">
                    <ellipse cx="808.406" cy="683.092" rx="84.218" ry="84.294" style="fill:rgb(28,77,99);stroke:rgb(28,77,99);stroke-width:4.94px;"/>
                </g>
            </g>
            <g transform="matrix(-0.707107,0.707107,-0.707107,-0.707107,2589.08,1446.63)">
                <path d="M569.594,1221.43C566.994,1177.02 714.631,785.461 814.094,784.019C928.248,782.364 987.888,1438.85 980.761,1450.05C973.633,1461.24 870.321,1082.76 801.794,1044.66C733.266,1006.56 572.194,1265.85 569.594,1221.43Z" style="fill:rgb(33,86,89);stroke:rgb(33,86,89);stroke-width:3.5px;"/>
                <g transform="matrix(0.751886,-1.11022e-16,1.11022e-16,0.663138,211.933,265.505)">
                    <ellipse cx="808.406" cy="683.092" rx="84.218" ry="84.294" style="fill:rgb(28,77,99);stroke:rgb(28,77,99);stroke-width:4.94px;"/>
                </g>
            </g>
            <g transform="matrix(-0.707107,-0.707107,0.707107,-0.707107,600.438,2591.51)">
                <path d="M569.594,1221.43C566.994,1177.02 714.631,785.461 814.094,784.019C928.248,782.364 987.888,1438.85 980.761,1450.05C973.633,1461.24 870.321,1082.76 801.794,1044.66C733.266,1006.56 572.194,1265.85 569.594,1221.43Z" style="fill:rgb(33,86,89);stroke:rgb(33,86,89);stroke-width:3.5px;"/>
                <g transform="matrix(0.751886,-1.11022e-16,1.11022e-16,0.663138,211.933,265.505)">
                    <ellipse cx="808.406" cy="683.092" rx="84.218" ry="84.294" style="fill:rgb(28,77,99);stroke:rgb(28,77,99);stroke-width:4.94px;"/>
                </g>
            </g>
        </g>
        <g transform="matrix(8.42085,0,0,7.24925,-24210.7,-5343.43)">
            <text x="3183.53px" y="884.174px" style="font-family:'Gruppo';font-size:24px;stroke:black;stroke-width:0.16px;stroke-linecap:butt;stroke-miterlimit:2;">T<tspan x="3214.54px 3243.85px " y="884.174px 884.174px ">he</tspan></text>
            <text x="3183.53px" y="908.174px" style="font-family:'Gruppo';font-size:24px;stroke:black;stroke-width:0.16px;stroke-linecap:butt;stroke-miterlimit:2;">H<tspan x="3199.44px " y="908.174px ">o</tspan>pby</text>
        </g>
        <g transform="matrix(7.75687,0,0,6.4064,-22067.9,-5022.4)">
            <text x="3183.53px" y="884.174px" style="font-family:'Gruppo';font-size:24px;stroke:black;stroke-width:0.17px;stroke-linecap:butt;stroke-miterlimit:2;">t<tspan x="3209.93px 3241.99px " y="884.174px 884.174px ">he</tspan></text>
            <text x="3183.53px" y="908.174px" style="font-family:'Gruppo';font-size:24px;stroke:black;stroke-width:0.17px;stroke-linecap:butt;stroke-miterlimit:2;">hopby</text>
        </g>
    </g>
    <rect id="Artboard3" x="4296" y="0" width="2048" height="2048" style="fill:none;"/>
    <g id="Artboard31" serif:id="Artboard3">
        <g transform="matrix(0.443675,0,0,0.443675,4311.87,569.296)">
            <g transform="matrix(0.707107,0.707107,-0.707107,0.707107,1442.53,-537.751)">
                <path d="M569.594,1221.43C566.994,1177.02 714.631,785.461 814.094,784.019C928.248,782.364 987.888,1438.85 980.761,1450.05C973.633,1461.24 870.321,1082.76 801.794,1044.66C733.266,1006.56 572.194,1265.85 569.594,1221.43Z" style="fill:rgb(33,86,89);stroke:rgb(33,86,89);stroke-width:2.25px;"/>
                <g transform="matrix(0.751886,-1.11022e-16,1.11022e-16,0.663138,211.933,265.505)">
                    <ellipse cx="808.406" cy="683.092" rx="84.218" ry="84.294" style="fill:rgb(28,77,99);stroke:rgb(28,77,99);stroke-width:3.18px;"/>
                </g>
            </g>
            <g transform="matrix(0.707107,-0.707107,0.707107,0.707107,-539.59,603.086)">
                <path d="M569.594,1221.43C566.994,1177.02 714.631,785.461 814.094,784.019C928.248,782.364 987.888,1438.85 980.761,1450.05C973.633,1461.24 870.321,1082.76 801.794,1044.66C733.266,1006.56 572.194,1265.85 569.594,1221.43Z" style="fill:rgb(33,86,89);stroke:rgb(33,86,89);stroke-width:2.25px;"/>
                <g transform="matrix(0.751886,-1.11022e-16,1.11022e-16,0.663138,211.933,265.505)">
                    <ellipse cx="808.406" cy="683.092" rx="84.218" ry="84.294" style="fill:rgb(28,77,99);stroke:rgb(28,77,99);stroke-width:3.18px;"/>
                </g>
            </g>
            <g transform="matrix(-0.707107,0.707107,-0.707107,-0.707107,2589.08,1446.63)">
                <path d="M569.594,1221.43C566.994,1177.02 714.631,785.461 814.094,784.019C928.248,782.364 987.888,1438.85 980.761,1450.05C973.633,1461.24 870.321,1082.76 801.794,1044.66C733.266,1006.56 572.194,1265.85 569.594,1221.43Z" style="fill:rgb(33,86,89);stroke:rgb(33,86,89);stroke-width:2.25px;"/>
                <g transform="matrix(0.751886,-1.11022e-16,1.11022e-16,0.663138,211.933,265.505)">
                    <ellipse cx="808.406" cy="683.092" rx="84.218" ry="84.294" style="fill:rgb(28,77,99);stroke:rgb(28,77,99);stroke-width:3.18px;"/>
                </g>
            </g>
            <g transform="matrix(-0.707107,-0.707107,0.707107,-0.707107,600.438,2591.51)">
                <path d="M569.594,1221.43C566.994,1177.02 714.631,785.461 814.094,784.019C928.248,782.364 987.888,1438.85 980.761,1450.05C973.633,1461.24 870.321,1082.76 801.794,1044.66C733.266,1006.56 572.194,1265.85 569.594,1221.43Z" style="fill:rgb(33,86,89);stroke:rgb(33,86,89);stroke-width:2.25px;"/>
                <g transform="matrix(0.751886,-1.11022e-16,1.11022e-16,0.663138,211.933,265.505)">
                    <ellipse cx="808.406" cy="683.092" rx="84.218" ry="84.294" style="fill:rgb(28,77,99);stroke:rgb(28,77,99);stroke-width:3.18px;"/>
                </g>
            </g>
        </g>
        <g transform="matrix(12.339,0,0,12.4208,-34207.4,-10077.1)">
            <g transform="matrix(0.534342,0,0,0.32125,1495.2,599.411)">
                <text x="3210.94px" y="883.11px" style="font-family:'Gruppo';font-size:24px;stroke:black;stroke-width:0.22px;stroke-linecap:butt;stroke-miterlimit:2;">THE</text>
            </g>
            <g transform="matrix(1,0,0,1.61187,0,-555.698)">
                <text x="3183.53px" y="908.189px" style="font-family:'Gruppo';font-size:24px;stroke:black;stroke-width:0.07px;stroke-linecap:butt;stroke-miterlimit:2;">HOPB<tspan x="3249.85px " y="908.189px ">Y</tspan></text>
            </g>
        </g>
    </g>
    <g id="Artboard4" transform="matrix(1,0,0,0.543079,-30.9931,592.885)">
        <rect x="6444" y="0" width="2048" height="2048" style="fill:white;"/>
        <g transform="matrix(12.339,0,0,36.8653,-31912.8,-32155.3)">
            <text x="3183.53px" y="908.189px" style="font-family:'Gruppo';font-size:24px;stroke:black;stroke-width:0.07px;stroke-linecap:butt;stroke-miterlimit:2;">HOPB<tspan x="3249.85px " y="908.189px ">Y</tspan></text>
        </g>
        <g transform="matrix(1,0,0,1.84135,117.148,-879.25)">
            <g transform="matrix(0.983434,0.181265,-0.181265,0.983434,292.064,-1270.4)">
                <path d="M6983.5,891.138C7002.45,879.242 7184.44,807.727 7191.82,839.744C7199.2,871.76 7046.7,1071.34 7027.75,1083.24C7008.81,1095.13 7087.28,945.117 7078.13,911.12C7068.98,877.124 6964.55,903.034 6983.5,891.138Z" style="fill:rgb(33,86,89);stroke:rgb(33,86,89);stroke-width:1.22px;"/>
            </g>
            <g transform="matrix(1,0,0,1,-14.6552,47.417)">
                <ellipse cx="7266.37" cy="792.327" rx="22.344" ry="21.5" style="fill:rgb(33,86,89);stroke:rgb(33,86,89);stroke-width:1.22px;"/>
            </g>
        </g>
        <g transform="matrix(-0.809017,1.08232,-0.587785,-1.48969,13213.2,-4859.4)">
            <g transform="matrix(0.983434,0.181265,-0.181265,0.983434,292.064,-1270.4)">
                <path d="M6983.5,891.138C7002.45,879.242 7184.44,807.727 7191.82,839.744C7199.2,871.76 7046.7,1071.34 7027.75,1083.24C7008.81,1095.13 7087.28,945.117 7078.13,911.12C7068.98,877.124 6964.55,903.034 6983.5,891.138Z" style="fill:rgb(33,86,89);stroke:rgb(33,86,89);stroke-width:1.22px;"/>
            </g>
            <g transform="matrix(1,0,0,1,-14.6552,47.417)">
                <ellipse cx="7266.37" cy="792.327" rx="22.344" ry="21.5" style="fill:rgb(33,86,89);stroke:rgb(33,86,89);stroke-width:1.22px;"/>
            </g>
        </g>
        <g transform="matrix(0.309017,1.75123,-0.951057,0.569009,5879.53,-11638.2)">
            <g transform="matrix(0.983434,0.181265,-0.181265,0.983434,292.064,-1270.4)">
                <path d="M6983.5,891.138C7002.45,879.242 7184.44,807.727 7191.82,839.744C7199.2,871.76 7046.7,1071.34 7027.75,1083.24C7008.81,1095.13 7087.28,945.117 7078.13,911.12C7068.98,877.124 6964.55,903.034 6983.5,891.138Z" style="fill:rgb(33,86,89);stroke:rgb(33,86,89);stroke-width:1.22px;"/>
            </g>
            <g transform="matrix(1,0,0,1,-14.6552,47.417)">
                <ellipse cx="7266.37" cy="792.327" rx="22.344" ry="21.5" style="fill:rgb(33,86,89);stroke:rgb(33,86,89);stroke-width:1.22px;"/>
            </g>
        </g>
        <g transform="matrix(-0.809017,-1.08232,0.587785,-1.48969,11982.8,10073.5)">
            <g transform="matrix(0.983434,0.181265,-0.181265,0.983434,292.064,-1270.4)">
                <path d="M6983.5,891.138C7002.45,879.242 7184.44,807.727 7191.82,839.744C7199.2,871.76 7046.7,1071.34 7027.75,1083.24C7008.81,1095.13 7087.28,945.117 7078.13,911.12C7068.98,877.124 6964.55,903.034 6983.5,891.138Z" style="fill:rgb(33,86,89);stroke:rgb(33,86,89);stroke-width:1.22px;"/>
            </g>
            <g transform="matrix(1,0,0,1,-14.6552,47.417)">
                <ellipse cx="7266.37" cy="792.327" rx="22.344" ry="21.5" style="fill:rgb(33,86,89);stroke:rgb(33,86,89);stroke-width:1.22px;"/>
            </g>
        </g>
        <g transform="matrix(0.309017,-1.75123,0.951057,0.569009,3890.17,12532.2)">
            <g transform="matrix(0.983434,0.181265,-0.181265,0.983434,292.064,-1270.4)">
                <path d="M6983.5,891.138C7002.45,879.242 7184.44,807.727 7191.82,839.744C7199.2,871.76 7046.7,1071.34 7027.75,1083.24C7008.81,1095.13 7087.28,945.117 7078.13,911.12C7068.98,877.124 6964.55,903.034 6983.5,891.138Z" style="fill:rgb(33,86,89);stroke:rgb(33,86,89);stroke-width:1.22px;"/>
            </g>
            <g transform="matrix(1,0,0,1,-14.6552,47.417)">
                <ellipse cx="7266.37" cy="792.327" rx="22.344" ry="21.5" style="fill:rgb(33,86,89);stroke:rgb(33,86,89);stroke-width:1.22px;"/>
            </g>
        </g>
    </g>
</svg>
